<mxfile host="65bd71144e">
    <diagram id="VkvkaN-M1O6QAKDNU1w5" name="Page-1">
        <mxGraphModel dx="1379" dy="2149" grid="1" gridSize="10" guides="1" tooltips="1" connect="1" arrows="1" fold="1" page="1" pageScale="1" pageWidth="850" pageHeight="1100" math="0" shadow="0">
            <root>
                <mxCell id="0"/>
                <mxCell id="1" parent="0"/>
                <mxCell id="36" style="edgeStyle=none;html=1;entryX=0;entryY=0.5;entryDx=0;entryDy=0;" edge="1" parent="1" source="2" target="12">
                    <mxGeometry relative="1" as="geometry">
                        <Array as="points">
                            <mxPoint x="80" y="730"/>
                            <mxPoint x="80" y="570"/>
                        </Array>
                    </mxGeometry>
                </mxCell>
                <mxCell id="2" value="theme.js" style="rounded=0;whiteSpace=wrap;html=1;" vertex="1" parent="1">
                    <mxGeometry x="200" y="700" width="120" height="60" as="geometry"/>
                </mxCell>
                <mxCell id="3" value="swiper.js" style="rounded=0;whiteSpace=wrap;html=1;" vertex="1" parent="1">
                    <mxGeometry x="360" y="700" width="120" height="60" as="geometry"/>
                </mxCell>
                <mxCell id="4" value="index.js" style="rounded=0;whiteSpace=wrap;html=1;" vertex="1" parent="1">
                    <mxGeometry x="520" y="700" width="120" height="60" as="geometry"/>
                </mxCell>
                <mxCell id="6" value="index.html" style="rounded=0;whiteSpace=wrap;html=1;" vertex="1" parent="1">
                    <mxGeometry x="360" y="540" width="120" height="60" as="geometry"/>
                </mxCell>
                <mxCell id="7" value="portfolio.html" style="rounded=0;whiteSpace=wrap;html=1;" vertex="1" parent="1">
                    <mxGeometry x="160" y="-60" width="120" height="60" as="geometry"/>
                </mxCell>
                <mxCell id="8" value="about.html" style="rounded=0;whiteSpace=wrap;html=1;" vertex="1" parent="1">
                    <mxGeometry x="160" y="60" width="120" height="60" as="geometry"/>
                </mxCell>
                <mxCell id="9" value="reviews.html" style="whiteSpace=wrap;html=1;" vertex="1" parent="1">
                    <mxGeometry x="160" y="180" width="120" height="60" as="geometry"/>
                </mxCell>
                <mxCell id="10" value="blog.html" style="whiteSpace=wrap;html=1;" vertex="1" parent="1">
                    <mxGeometry x="160" y="300" width="120" height="60" as="geometry"/>
                </mxCell>
                <mxCell id="11" value="vacancies.html" style="whiteSpace=wrap;html=1;" vertex="1" parent="1">
                    <mxGeometry x="160" y="420" width="120" height="60" as="geometry"/>
                </mxCell>
                <mxCell id="12" value="contacts.html" style="whiteSpace=wrap;html=1;" vertex="1" parent="1">
                    <mxGeometry x="160" y="540" width="120" height="60" as="geometry"/>
                </mxCell>
                <mxCell id="23" style="edgeStyle=none;html=1;" edge="1" parent="1" source="13" target="14">
                    <mxGeometry relative="1" as="geometry"/>
                </mxCell>
                <mxCell id="25" style="edgeStyle=none;html=1;" edge="1" parent="1" source="13" target="15">
                    <mxGeometry relative="1" as="geometry">
                        <Array as="points">
                            <mxPoint x="760" y="-390"/>
                            <mxPoint x="760" y="-270"/>
                            <mxPoint x="760" y="-150"/>
                        </Array>
                    </mxGeometry>
                </mxCell>
                <mxCell id="26" style="edgeStyle=none;html=1;entryX=1;entryY=0.5;entryDx=0;entryDy=0;" edge="1" parent="1" source="13" target="16">
                    <mxGeometry relative="1" as="geometry">
                        <Array as="points">
                            <mxPoint x="760" y="-390"/>
                            <mxPoint x="760" y="-150"/>
                            <mxPoint x="760" y="-30"/>
                        </Array>
                    </mxGeometry>
                </mxCell>
                <mxCell id="31" style="edgeStyle=none;html=1;entryX=1;entryY=0.5;entryDx=0;entryDy=0;" edge="1" parent="1" source="13" target="18">
                    <mxGeometry relative="1" as="geometry">
                        <Array as="points">
                            <mxPoint x="760" y="-390"/>
                            <mxPoint x="760" y="-130"/>
                            <mxPoint x="760" y="90"/>
                        </Array>
                    </mxGeometry>
                </mxCell>
                <mxCell id="32" style="edgeStyle=none;html=1;" edge="1" parent="1" source="13" target="17">
                    <mxGeometry relative="1" as="geometry">
                        <Array as="points">
                            <mxPoint x="760" y="-390"/>
                            <mxPoint x="760" y="-100"/>
                            <mxPoint x="760" y="210"/>
                        </Array>
                    </mxGeometry>
                </mxCell>
                <mxCell id="33" style="edgeStyle=none;html=1;entryX=1;entryY=0.5;entryDx=0;entryDy=0;" edge="1" parent="1" source="13" target="19">
                    <mxGeometry relative="1" as="geometry">
                        <Array as="points">
                            <mxPoint x="760" y="-390"/>
                            <mxPoint x="760" y="330"/>
                        </Array>
                    </mxGeometry>
                </mxCell>
                <mxCell id="34" style="edgeStyle=none;html=1;entryX=1;entryY=0.5;entryDx=0;entryDy=0;" edge="1" parent="1" source="13" target="20">
                    <mxGeometry relative="1" as="geometry">
                        <Array as="points">
                            <mxPoint x="760" y="-390"/>
                            <mxPoint x="760" y="450"/>
                        </Array>
                    </mxGeometry>
                </mxCell>
                <mxCell id="35" style="edgeStyle=none;html=1;entryX=1;entryY=0.5;entryDx=0;entryDy=0;" edge="1" parent="1" source="13" target="21">
                    <mxGeometry relative="1" as="geometry">
                        <Array as="points">
                            <mxPoint x="760" y="-390"/>
                            <mxPoint x="760" y="570"/>
                        </Array>
                    </mxGeometry>
                </mxCell>
                <mxCell id="13" value="services.html" style="whiteSpace=wrap;html=1;" vertex="1" parent="1">
                    <mxGeometry x="560" y="-420" width="120" height="60" as="geometry"/>
                </mxCell>
                <mxCell id="14" value="internet-shops.html" style="whiteSpace=wrap;html=1;" vertex="1" parent="1">
                    <mxGeometry x="560" y="-300" width="120" height="60" as="geometry"/>
                </mxCell>
                <mxCell id="15" value="corporative-website.html" style="whiteSpace=wrap;html=1;" vertex="1" parent="1">
                    <mxGeometry x="560" y="-180" width="120" height="60" as="geometry"/>
                </mxCell>
                <mxCell id="16" value="landing-page.html" style="whiteSpace=wrap;html=1;" vertex="1" parent="1">
                    <mxGeometry x="560" y="-60" width="120" height="60" as="geometry"/>
                </mxCell>
                <mxCell id="17" value="template_corporative&lt;br&gt;_website.html" style="whiteSpace=wrap;html=1;" vertex="1" parent="1">
                    <mxGeometry x="560" y="180" width="120" height="60" as="geometry"/>
                </mxCell>
                <mxCell id="18" value="template_internet&lt;br&gt;_shop.html" style="whiteSpace=wrap;html=1;" vertex="1" parent="1">
                    <mxGeometry x="560" y="60" width="120" height="60" as="geometry"/>
                </mxCell>
                <mxCell id="19" value="complex_web&lt;br&gt;_projects.html" style="whiteSpace=wrap;html=1;" vertex="1" parent="1">
                    <mxGeometry x="560" y="300" width="120" height="60" as="geometry"/>
                </mxCell>
                <mxCell id="20" value="seo_promotion.html" style="whiteSpace=wrap;html=1;" vertex="1" parent="1">
                    <mxGeometry x="560" y="420" width="120" height="60" as="geometry"/>
                </mxCell>
                <mxCell id="21" value="contexual_adverti-&lt;br&gt;sing.html" style="whiteSpace=wrap;html=1;" vertex="1" parent="1">
                    <mxGeometry x="560" y="540" width="120" height="60" as="geometry"/>
                </mxCell>
                <mxCell id="22" value="style.css" style="whiteSpace=wrap;html=1;" vertex="1" parent="1">
                    <mxGeometry x="360" y="180" width="120" height="60" as="geometry"/>
                </mxCell>
            </root>
        </mxGraphModel>
    </diagram>
</mxfile>